PathFileType	4	(X/Y/Z)	../Python\running\Running06\task.trc
DataRate	CameraRate	NumFrames	NumMarkers	Units	OrigDataRate	OrigDataStartFrame	OrigNumFrames
200.000000	200.000000	7	30	mm	200.000000	104	208
Frame#	Time	C7			RBAK			CLAV			STRN			RASI			LASI			PE01			RTH1			RTH2			RTH3			RD5M			RTOE			LTH2			LTH3			LTB2			LTB3			LHEE			LTOE			LD5M			RHEE			RTB2			LPSI			RPSI			T10			RTB3			RTB1			PE03			PE02			LTH1			LTB1			
		X1	Y1	Z1	X2	Y2	Z2	X3	Y3	Z3	X4	Y4	Z4	X5	Y5	Z5	X6	Y6	Z6	X7	Y7	Z7	X8	Y8	Z8	X9	Y9	Z9	X10	Y10	Z10	X11	Y11	Z11	X12	Y12	Z12	X13	Y13	Z13	X14	Y14	Z14	X15	Y15	Z15	X16	Y16	Z16	X17	Y17	Z17	X18	Y18	Z18	X19	Y19	Z19	X20	Y20	Z20	X21	Y21	Z21	X22	Y22	Z22	X23	Y23	Z23	X24	Y24	Z24	X25	Y25	Z25	X26	Y26	Z26	X27	Y27	Z27	X28	Y28	Z28	X29	Y29	Z29	X30	Y30	Z30	

105	0.52	-75.01154327392581	1368.376708984375	120.1013107299805	-156.6213073730469	1280.716186523438	176.1575164794922	32.22061920166017	1280.937622070313	170.0585479736329	80.07826232910159	1101.04248046875	168.0971679687501	24.1304111480713	894.9252319335942	239.1994018554689	22.99296760559083	861.538208007813	23.50154685974122	-142.6393585205079	994.9434204101567	134.7461547851563	42.00212860107423	610.6281738281252	283.7975158691407	88.43142700195315	549.2556152343752	262.9779052734376	92.41915130615237	609.1011352539065	278.2246093750001	331.1184997558595	58.17180633544925	214.3814544677736	358.2532958984376	88.14287567138675	172.1671600341797	-196.2176971435548	589.5025024414065	28.62915802001955	-116.9428482055665	589.1356201171877	14.12951660156251	-440.1966552734377	365.7983703613282	78.306999206543	-392.9610595703127	350.699676513672	73.96124267578128	-580.9628906250002	300.8996887207032	148.7661132812501	-538.4005126953127	129.6899414062501	151.7366485595704	-563.7300415039065	149.4821166992188	101.7400512695313	180.8582305908204	89.49796295166018	158.5380859375001	152.0516357421876	298.1904296875001	253.5762176513673	-156.9486236572266	961.9523315429692	94.61465454101565	-161.9611511230469	964.2648925781255	183.0175018310547	-128.8131561279297	1083.847900390625	106.5309829711915	196.4610290527345	276.4988098144532	244.6797637939454	179.1880187988282	352.964813232422	252.7725524902345	-174.7619781494141	939.6582641601567	115.2810134887696	-174.4781188964844	946.4053344726567	165.4077911376954	-150.6656951904297	627.4805297851565	8.965227127075199	-376.1774902343751	408.423522949219	59.651481628418	
106	0.525	-58.39532470703128	1366.810302734375	120.3461990356446	-140.4127502441407	1278.734497070313	176.3134155273438	48.62954330444339	1279.466918945313	170.1515502929688	96.30258178710943	1099.599243164063	167.7138824462891	40.18931198120119	893.565551757813	239.4657592773439	40.04251098632814	860.911499023438	23.45528793334962	-126.7905044555665	992.8584594726567	135.1330261230469	59.14917755126956	609.0654907226565	283.6621398925782	105.9792175292969	548.1390380859377	262.0489196777345	109.5642242431641	607.9837036132815	277.485321044922	341.8478393554689	54.2179870605469	211.2313385009767	369.134490966797	83.92305755615237	169.3958282470704	-175.9910125732422	585.9802856445315	27.29549217224123	-96.52497863769537	586.314880371094	14.04084396362305	-422.1781311035159	369.696502685547	78.38793945312503	-375.4392089843751	353.0333251953126	73.48010253906253	-565.0410156250002	307.9078674316407	149.7964935302735	-524.931579589844	136.057601928711	149.719711303711	-550.114440917969	157.0687866210938	100.151466369629	192.1982574462892	87.91062927246097	155.7329711914063	165.7401580810547	296.2420043945314	251.6887207031251	-140.6366119384766	959.9089965820317	94.67283630371097	-145.9954223632813	961.9837036132817	183.1056518554688	-112.6184616088868	1082.450927734375	106.3446655273438	209.9488525390626	274.1179199218751	242.7183685302736	193.7069091796876	350.8082885742189	251.2212524414064	-158.4114379882813	937.5219116210942	115.0029602050782	-158.4354858398438	943.8811035156255	165.1837463378907	-130.4934082031251	624.3450927734377	8.198995590209964	-356.7875976562501	410.3627014160159	59.57735061645511	
107	0.53	-41.79056930541994	1365.019287109375	120.598861694336	-124.1996841430665	1276.513061523438	176.5523376464844	65.0527267456055	1277.752807617188	170.2062377929688	112.5095901489258	1097.764038085938	167.3129577636719	56.21222305297854	891.967651367188	239.8441009521486	57.09571075439456	860.129516601563	23.42891502380372	-110.981430053711	990.2837524414067	135.5448303222657	76.29038238525393	607.5345458984377	283.4313354492189	123.5564880371094	547.059753417969	261.1710205078126	126.7057647705079	606.947937011719	276.6231994628907	351.3397216796876	49.67842102050784	208.2089843750001	378.8506469726564	78.91585540771487	166.5301055908204	-155.5585021972657	582.2263793945315	25.81758499145509	-75.93656158447268	583.407653808594	13.69813823699952	-403.5523376464846	373.273651123047	78.37882995605472	-357.3605041503907	355.1158142089845	72.8891525268555	-548.3748779296877	314.5368957519532	150.8851928710938	-510.5671691894534	142.2019653320313	147.2404327392579	-535.6326904296877	164.5437927246094	98.26654815673834	202.3133239746095	85.83838653564456	153.0066223144532	178.9214172363282	293.9589233398439	249.8831176757814	-124.4376907348633	957.4209594726567	94.77533721923831	-130.0687866210938	959.2138061523442	183.1715850830079	-96.42887115478521	1080.799194335938	106.1228942871094	222.8219299316407	271.2579345703126	240.7318878173829	207.8740844726564	348.1986083984376	249.6910705566407	-142.1604003906251	934.9272460937505	114.7600860595704	-142.4490356445313	940.8901367187505	164.9934997558594	-110.2007141113282	621.0323486328127	7.287797451019291	-336.8800659179689	412.0033264160159	59.42039871215823	
108	0.535	-25.20132446289064	1363.00390625	120.8675003051758	-107.9814071655274	1274.04345703125	176.8676300048829	81.491569519043	1275.789306640625	170.2292175292969	128.7064666748047	1095.542114257813	166.8985748291016	72.20520019531253	890.1371459960942	240.3262481689454	74.14085388183597	859.162231445313	23.42756843566895	-95.20866394042972	987.2376098632817	135.9474792480469	93.34527587890628	606.0222167968752	283.1248168945314	141.0415649414063	545.9674072265627	260.413299560547	143.765609741211	605.9375610351565	275.7298583984376	359.7045288085939	44.72951889038087	205.331268310547	387.4954528808596	73.30798339843753	163.5228118896485	-134.9550781250001	578.2386474609377	24.21626281738283	-55.21424484252933	580.4221801757815	13.08893108367921	-384.3280029296877	376.4603271484376	78.27127075195315	-338.7283020019532	356.8881835937501	72.18977355957034	-530.9775390625002	320.7175598144532	152.0183563232422	-495.2960510253909	148.0684967041016	144.3334655761719	-520.270446777344	171.8324279785157	96.11033630371099	211.2429046630861	83.27130126953128	150.4003448486329	191.5923919677735	291.3376464843751	248.1715240478517	-108.3480300903321	954.4996948242192	94.90071105957034	-114.172462463379	955.9761352539067	183.1976776123047	-80.23953247070315	1078.89111328125	105.8551559448243	235.0719146728517	267.9275512695314	238.7395782470704	221.6534576416017	345.1199035644532	248.216522216797	-126.0025939941407	931.8840942382817	114.5423202514649	-126.5085220336915	937.4592895507817	164.8249816894532	-89.83693695068362	617.5538330078127	6.236410140991214	-316.4712829589845	413.2856140136721	59.15903472900393	
109	0.54	-8.630913734436039	1360.765502929688	121.1604080200196	-91.75738525390628	1271.318237304688	177.2542724609376	97.94880676269537	1273.569702148438	170.2266540527344	144.900131225586	1092.940795898438	166.472885131836	88.17181396484378	888.0819702148442	240.9024810791017	91.16387939453128	857.9799194335942	23.45598983764649	-79.47467803955081	983.7492675781255	136.3062438964844	110.2373962402344	604.4985351562502	282.7680664062501	158.3183746337891	544.796569824219	259.8338012695314	160.6687011718751	604.8790283203127	274.8914184570314	367.041229248047	39.57787322998048	202.637176513672	395.1582641601565	67.3168640136719	160.3634185791016	-114.2169342041016	574.0132446289065	22.52222251892091	-34.39612960815431	577.351013183594	12.21567630767823	-364.520721435547	379.1949768066407	78.05544281005862	-319.551483154297	358.2967529296876	71.37790679931643	-512.8690185546877	326.3861694335939	153.1662292480469	-479.1150512695315	153.6009521484376	141.0570220947266	-504.0184631347659	178.8486938476563	93.71771240234378	219.0161743164064	80.20385742187503	147.9557647705079	203.7530975341798	288.3862609863282	246.5628204345704	-92.36325836181643	951.1629028320317	95.02627563476565	-98.30011749267584	952.3019409179692	183.1686553955079	-64.04771423339847	1076.7265625	105.5351028442383	246.6914215087892	264.1483764648439	236.7557373046876	235.0110168457032	341.5671691894532	246.8191223144532	-109.9322967529297	928.410034179688	114.3386230468751	-110.6078338623047	933.623657226563	164.6653442382813	-69.44477844238284	613.9121093750002	5.056960582733156	-295.5839233398439	414.1595458984377	58.7721862792969	
110	0.545	7.918231964111332	1358.307739257813	121.4854812622071	-75.52748107910159	1268.331420898438	177.7091979980469	114.4283142089844	1271.086791992188	170.2039489746094	161.0968322753907	1089.968994140625	166.0360107421876	104.1128387451172	885.8123168945317	241.5616455078126	108.1487350463868	856.5549926757817	23.51831436157227	-63.78684234619143	979.8580932617192	136.5870208740235	126.8989486694337	602.9180908203127	282.3903808593751	175.2835998535157	543.470642089844	259.4724426269532	177.3474273681641	603.6858520507815	274.1795043945314	373.4342041015626	34.44747924804689	200.1811370849611	401.9207458496096	61.18061065673831	157.0789489746094	-93.38026428222659	569.546813964844	20.77380943298341	-13.52092647552491	574.1744384765627	11.09272480010987	-344.1499023437501	381.426971435547	77.7197189331055	-299.8416748046876	359.2959289550782	70.44465637207034	-494.0747070312502	331.4873352050782	154.2848358154297	-462.0257873535159	158.743392944336	137.4851837158204	-486.8716125488284	185.5005035400391	91.12813568115237	225.6542053222657	76.63984680175784	145.7103729248047	215.4101104736329	285.125946044922	245.0622558593751	-76.47830200195315	947.4346313476567	95.12889099121097	-82.44841003417972	948.2330932617192	183.0716857910157	-47.85286331176759	1074.307861328125	105.1607208251954	257.6781311035157	259.9563293457032	234.787322998047	247.920379638672	337.5500793457032	245.5028076171876	-93.94448852539065	924.5308227539067	114.1371688842774	-94.74504089355472	929.4260864257817	164.501205444336	-49.05946350097659	610.1033325195315	3.767623186111452	-274.2434692382814	414.5876770019534	58.24023056030276	
111	0.55	24.44468307495119	1355.637084960938	121.8497772216797	-59.29208755493167	1265.080322265625	178.2313842773438	130.9347534179688	1268.334716796875	170.1654663085938	177.3019714355469	1086.638061523438	165.5860290527344	120.0261840820313	883.341430664063	242.2912902832032	125.0778579711915	854.862670898438	23.61789894104005	-48.15602111816409	975.613159179688	136.7576904296876	143.273910522461	601.2234497070315	282.0212707519532	191.851791381836	541.9082031250002	259.3446655273439	193.7450103759767	602.2646484375002	273.6452026367189	378.9514770507814	29.56292724609376	198.0218353271486	407.8540039062502	55.14494705200198	153.7297973632813	-72.47924804687503	564.8387451171877	19.01373291015626	7.373754978179935	570.8643798828127	9.742988586425785	-323.236053466797	383.118133544922	77.25003814697268	-279.6101074218751	359.8502502441407	69.37747192382815	-474.6233825683596	335.9765014648439	155.3190002441407	-444.0319519042971	163.4423980712891	133.6994018554688	-468.8280029296877	191.6955261230469	88.38047790527347	231.1751556396486	72.60031890869143	143.6923828125001	226.5790863037111	281.5914611816407	243.6710510253907	-60.68729019165042	943.3458862304692	95.185661315918	-66.61718750000003	943.8223266601567	182.8962097167969	-31.65657234191896	1071.640380859375	104.7342529296876	268.0383911132814	255.4027252197267	232.8327026367189	260.3673400878907	333.0964660644532	244.2515563964845	-78.0349044799805	920.2813110351567	113.9254913330079	-78.92234039306643	924.9172973632817	164.3187408447266	-28.70812606811525	606.1201171875002	2.3907368183136	-252.4742279052736	414.5461120605471	57.54499816894534	
